<svg width="440" height="437" viewBox="0 0 440 437" fill="none" xmlns="http://www.w3.org/2000/svg">
<path d="M23.651 137.821C37.9781 98.5118 64.0725 64.5736 98.3811 40.6278C132.69 16.682 173.545 3.89247 215.384 4.00068L214.857 207.51L23.651 137.821Z" fill="#A5193E" fill-opacity="0.57" stroke="white" stroke-opacity="0.62" stroke-width="7"/>
<path d="M129.654 100.878H127.654V87.3175L123.974 90.2575L122.834 88.7575L127.954 84.6775H129.654V100.878ZM139.045 101.178C137.939 101.178 136.939 100.918 136.045 100.398C135.165 99.8775 134.465 99.1042 133.945 98.0775C133.425 97.0375 133.165 95.7909 133.165 94.3375V91.1975C133.165 89.7575 133.425 88.5242 133.945 87.4975C134.465 86.4709 135.165 85.6975 136.045 85.1775C136.939 84.6442 137.939 84.3775 139.045 84.3775C140.152 84.3775 141.152 84.6442 142.045 85.1775C142.939 85.6975 143.645 86.4709 144.165 87.4975C144.685 88.5242 144.945 89.7575 144.945 91.1975V94.3375C144.945 95.7909 144.685 97.0375 144.165 98.0775C143.645 99.1042 142.939 99.8775 142.045 100.398C141.152 100.918 140.152 101.178 139.045 101.178ZM139.045 99.3775C140.192 99.3775 141.125 98.9442 141.845 98.0775C142.565 97.1975 142.925 95.9175 142.925 94.2375V91.3175C142.925 89.6375 142.565 88.3642 141.845 87.4975C141.125 86.6175 140.192 86.1775 139.045 86.1775C137.899 86.1775 136.965 86.6175 136.245 87.4975C135.525 88.3642 135.165 89.6375 135.165 91.3175V94.2375C135.165 95.9175 135.525 97.1975 136.245 98.0775C136.965 98.9442 137.899 99.3775 139.045 99.3775ZM157.288 92.8475H154.363V94.1825H147.538V87.9275H154.363V88.9475H157.288V87.2675H158.773V94.8575H157.288V92.8475ZM148.993 92.8475H152.908V89.2625H148.993V92.8475ZM157.288 91.6325V90.1625H154.363V91.6325H157.288ZM155.638 95.5925C156.298 95.5925 156.878 95.7175 157.378 95.9675C157.888 96.2075 158.278 96.5475 158.548 96.9875C158.828 97.4175 158.968 97.9075 158.968 98.4575C158.968 99.0175 158.828 99.5125 158.548 99.9425C158.278 100.383 157.888 100.723 157.378 100.963C156.878 101.213 156.298 101.338 155.638 101.338H152.593C151.933 101.338 151.353 101.213 150.853 100.963C150.353 100.723 149.963 100.383 149.683 99.9425C149.413 99.5125 149.278 99.0175 149.278 98.4575C149.278 97.9075 149.413 97.4175 149.683 96.9875C149.963 96.5475 150.353 96.2075 150.853 95.9675C151.353 95.7175 151.933 95.5925 152.593 95.5925H155.638ZM155.398 99.9875C156.068 99.9875 156.578 99.8475 156.928 99.5675C157.288 99.2875 157.468 98.9175 157.468 98.4575C157.468 97.9975 157.288 97.6275 156.928 97.3475C156.578 97.0675 156.068 96.9275 155.398 96.9275H152.848C152.178 96.9275 151.663 97.0675 151.303 97.3475C150.953 97.6275 150.778 97.9975 150.778 98.4575C150.778 98.9175 150.953 99.2875 151.303 99.5675C151.663 99.8475 152.178 99.9875 152.848 99.9875H155.398ZM139.014 109.638H141.039V111.003H139.014V118.188H137.514V104.268H139.014V109.638ZM132.564 105.858H135.834V107.103H127.764V105.858H131.049V104.283H132.564V105.858ZM132.639 115.023C133.859 114.953 135.099 114.843 136.359 114.693L136.524 115.998C135.504 116.138 134.379 116.248 133.149 116.328C131.929 116.408 130.814 116.448 129.804 116.448H127.599L127.524 115.113H129.924C130.134 115.113 130.539 115.103 131.139 115.083V113.418C130.319 113.318 129.654 113.043 129.144 112.593C128.644 112.133 128.394 111.538 128.394 110.808V110.583C128.394 109.753 128.714 109.108 129.354 108.648C130.004 108.178 130.829 107.943 131.829 107.943C132.809 107.943 133.619 108.178 134.259 108.648C134.899 109.108 135.219 109.753 135.219 110.583V110.808C135.219 111.518 134.979 112.098 134.499 112.548C134.029 112.988 133.409 113.273 132.639 113.403V115.023ZM129.864 110.793C129.864 111.243 130.044 111.603 130.404 111.873C130.774 112.133 131.249 112.263 131.829 112.263C132.389 112.263 132.849 112.133 133.209 111.873C133.579 111.603 133.764 111.243 133.764 110.793V110.598C133.764 110.148 133.579 109.793 133.209 109.533C132.849 109.273 132.389 109.143 131.829 109.143C131.249 109.143 130.774 109.273 130.404 109.533C130.044 109.793 129.864 110.148 129.864 110.598V110.793ZM153.103 109.503H155.248V110.868H153.103V118.188H151.603V104.268H153.103V109.503ZM146.608 106.893C146.608 108.063 146.473 109.183 146.203 110.253L150.163 115.203L149.038 116.148L145.648 111.903C145.008 113.433 144.018 114.898 142.678 116.298L141.613 115.308C142.833 114.038 143.723 112.733 144.283 111.393C144.853 110.043 145.138 108.543 145.138 106.893V105.078H146.608V106.893Z" fill="white"/>
<path d="M430.198 259C425.337 287.542 414.385 314.787 398.042 338.992C381.698 363.198 360.323 383.832 335.282 399.575C310.241 415.318 282.087 425.823 252.618 430.42C223.15 435.016 193.016 433.602 164.143 426.269C135.271 418.935 108.295 405.843 84.9402 387.829C61.5858 369.816 42.3668 347.277 28.5121 321.654C14.6574 296.032 6.47182 267.889 4.47879 239.026C2.48577 210.163 6.72913 181.214 16.9376 154.031L218.531 225.143L430.198 259Z" fill="#815854" fill-opacity="0.4" stroke="white" stroke-opacity="0.62" stroke-width="7"/>
<path d="M180.776 311.914V309.418L190.28 299.978C191.794 298.485 192.882 297.194 193.544 296.106C194.205 294.997 194.536 293.856 194.536 292.682C194.536 291.36 194.077 290.314 193.16 289.546C192.264 288.778 191.005 288.394 189.384 288.394C186.632 288.394 184.733 290.122 183.688 293.578L180.648 292.842C181.224 290.752 182.248 289.013 183.72 287.626C185.213 286.218 187.101 285.514 189.384 285.514C191.048 285.514 192.498 285.802 193.736 286.378C194.994 286.933 195.965 287.744 196.648 288.81C197.352 289.877 197.704 291.125 197.704 292.554C197.704 294.197 197.298 295.712 196.488 297.098C195.677 298.485 194.418 300.021 192.712 301.706L185.384 308.97H198.312V311.914H180.776ZM201.852 285.994H219.484V288.906L207.068 312.394H203.452L215.868 288.906H201.852V285.994ZM231.674 302.684H228.749V304.019H221.924V297.764H228.749V298.784H231.674V297.104H233.159V304.694H231.674V302.684ZM223.379 302.684H227.294V299.099H223.379V302.684ZM231.674 301.469V299.999H228.749V301.469H231.674ZM230.024 305.429C230.684 305.429 231.264 305.554 231.764 305.804C232.274 306.044 232.664 306.384 232.934 306.824C233.214 307.254 233.354 307.744 233.354 308.294C233.354 308.854 233.214 309.349 232.934 309.779C232.664 310.219 232.274 310.559 231.764 310.799C231.264 311.049 230.684 311.174 230.024 311.174H226.979C226.319 311.174 225.739 311.049 225.239 310.799C224.739 310.559 224.349 310.219 224.069 309.779C223.799 309.349 223.664 308.854 223.664 308.294C223.664 307.744 223.799 307.254 224.069 306.824C224.349 306.384 224.739 306.044 225.239 305.804C225.739 305.554 226.319 305.429 226.979 305.429H230.024ZM229.784 309.824C230.454 309.824 230.964 309.684 231.314 309.404C231.674 309.124 231.854 308.754 231.854 308.294C231.854 307.834 231.674 307.464 231.314 307.184C230.964 306.904 230.454 306.764 229.784 306.764H227.234C226.564 306.764 226.049 306.904 225.689 307.184C225.339 307.464 225.164 307.834 225.164 308.294C225.164 308.754 225.339 309.124 225.689 309.404C226.049 309.684 226.564 309.824 227.234 309.824H229.784ZM173.526 314.404H183.126V319.894H173.526V314.404ZM175.026 318.559H181.626V315.709H175.026V318.559ZM171.786 322.729V321.349H184.866V322.729H179.076V325.189H177.591V322.729H171.786ZM173.466 323.989H174.966V326.629H183.486V328.024H173.466V323.989ZM197.95 324.529H196.45V314.104H197.95V324.529ZM190.285 322.249C189.575 322.249 188.935 322.109 188.365 321.829C187.805 321.549 187.36 321.129 187.03 320.569C186.71 320.009 186.55 319.324 186.55 318.514V318.229C186.55 317.409 186.71 316.719 187.03 316.159C187.36 315.589 187.805 315.169 188.365 314.899C188.935 314.619 189.575 314.479 190.285 314.479C190.985 314.479 191.615 314.619 192.175 314.899C192.745 315.169 193.19 315.589 193.51 316.159C193.84 316.719 194.005 317.409 194.005 318.229V318.514C194.005 319.324 193.84 320.009 193.51 320.569C193.19 321.129 192.745 321.549 192.175 321.829C191.615 322.109 190.985 322.249 190.285 322.249ZM190.285 320.929C190.935 320.929 191.465 320.719 191.875 320.299C192.295 319.879 192.505 319.274 192.505 318.484V318.244C192.505 317.454 192.295 316.849 191.875 316.429C191.465 316.009 190.935 315.799 190.285 315.799C189.625 315.799 189.085 316.009 188.665 316.429C188.255 316.849 188.05 317.454 188.05 318.244V318.484C188.05 319.274 188.255 319.879 188.665 320.299C189.085 320.719 189.625 320.929 190.285 320.929ZM198.535 328.024H188.74V323.509H190.24V326.659H198.535V328.024ZM210.659 318.904V314.104H212.159V328.024H210.659V320.269H207.359V318.904H210.659ZM205.364 316.729C205.364 317.919 205.224 319.039 204.944 320.089L209.069 325.024L207.944 325.984L204.389 321.694C203.719 323.244 202.679 324.724 201.269 326.134L200.219 325.129C201.489 323.849 202.419 322.544 203.009 321.214C203.609 319.874 203.909 318.379 203.909 316.729V314.914H205.364V316.729ZM225.737 319.474H227.762V320.839H225.737V328.024H224.237V314.104H225.737V319.474ZM219.287 315.694H222.557V316.939H214.487V315.694H217.772V314.119H219.287V315.694ZM219.362 324.859C220.582 324.789 221.822 324.679 223.082 324.529L223.247 325.834C222.227 325.974 221.102 326.084 219.872 326.164C218.652 326.244 217.537 326.284 216.527 326.284H214.322L214.247 324.949H216.647C216.857 324.949 217.262 324.939 217.862 324.919V323.254C217.042 323.154 216.377 322.879 215.867 322.429C215.367 321.969 215.117 321.374 215.117 320.644V320.419C215.117 319.589 215.437 318.944 216.077 318.484C216.727 318.014 217.552 317.779 218.552 317.779C219.532 317.779 220.342 318.014 220.982 318.484C221.622 318.944 221.942 319.589 221.942 320.419V320.644C221.942 321.354 221.702 321.934 221.222 322.384C220.752 322.824 220.132 323.109 219.362 323.239V324.859ZM216.587 320.629C216.587 321.079 216.767 321.439 217.127 321.709C217.497 321.969 217.972 322.099 218.552 322.099C219.112 322.099 219.572 321.969 219.932 321.709C220.302 321.439 220.487 321.079 220.487 320.629V320.434C220.487 319.984 220.302 319.629 219.932 319.369C219.572 319.109 219.112 318.979 218.552 318.979C217.972 318.979 217.497 319.109 217.127 319.369C216.767 319.629 216.587 319.984 216.587 320.434V320.629ZM239.826 319.339H241.986V320.704H239.826V328.024H238.326V314.104H239.826V319.339ZM229.191 316.564V315.199H235.776V316.429C235.776 318.369 235.256 320.184 234.216 321.874C233.186 323.554 231.716 325.049 229.806 326.359L228.876 325.174C230.606 324.044 231.936 322.729 232.866 321.229C233.806 319.729 234.276 318.229 234.276 316.729V316.564H229.191Z" fill="white"/>
<path d="M228.816 4C258.89 4 288.603 10.5471 315.892 23.1865C343.18 35.8259 367.39 54.2546 386.84 77.1924C406.289 100.13 420.512 127.027 428.52 156.015C436.528 185.003 438.129 215.387 433.212 245.056L228.816 211.184L228.816 4Z" fill="#1D4173" fill-opacity="0.48" stroke="white" stroke-opacity="0.62" stroke-width="7"/>
<path d="M314.875 125.857H312.875V112.297L309.195 115.237L308.055 113.737L313.175 109.657H314.875V125.857ZM328.106 120.817H330.606V122.657H328.106V126.157H326.126V122.657H317.986V121.017L325.426 109.657H328.106V120.817ZM326.126 111.937L320.386 120.817H326.126V111.937ZM342.353 117.827H339.428V119.162H332.603V112.907H339.428V113.927H342.353V112.247H343.838V119.837H342.353V117.827ZM334.058 117.827H337.973V114.242H334.058V117.827ZM342.353 116.612V115.142H339.428V116.612H342.353ZM340.703 120.572C341.363 120.572 341.943 120.697 342.443 120.947C342.953 121.187 343.343 121.527 343.613 121.967C343.893 122.397 344.033 122.887 344.033 123.437C344.033 123.997 343.893 124.492 343.613 124.922C343.343 125.362 342.953 125.702 342.443 125.942C341.943 126.192 341.363 126.317 340.703 126.317H337.658C336.998 126.317 336.418 126.192 335.918 125.942C335.418 125.702 335.028 125.362 334.748 124.922C334.478 124.492 334.343 123.997 334.343 123.437C334.343 122.887 334.478 122.397 334.748 121.967C335.028 121.527 335.418 121.187 335.918 120.947C336.418 120.697 336.998 120.572 337.658 120.572H340.703ZM340.463 124.967C341.133 124.967 341.643 124.827 341.993 124.547C342.353 124.267 342.533 123.897 342.533 123.437C342.533 122.977 342.353 122.607 341.993 122.327C341.643 122.047 341.133 121.907 340.463 121.907H337.913C337.243 121.907 336.728 122.047 336.368 122.327C336.018 122.607 335.843 122.977 335.843 123.437C335.843 123.897 336.018 124.267 336.368 124.547C336.728 124.827 337.243 124.967 337.913 124.967H340.463ZM324.157 134.617H326.182V135.982H324.157V143.167H322.657V129.247H324.157V134.617ZM317.707 130.837H320.977V132.082H312.907V130.837H316.192V129.262H317.707V130.837ZM317.782 140.002C319.002 139.932 320.242 139.822 321.502 139.672L321.667 140.977C320.647 141.117 319.522 141.227 318.292 141.307C317.072 141.387 315.957 141.427 314.947 141.427H312.742L312.667 140.092H315.067C315.277 140.092 315.682 140.082 316.282 140.062V138.397C315.462 138.297 314.797 138.022 314.287 137.572C313.787 137.112 313.537 136.517 313.537 135.787V135.562C313.537 134.732 313.857 134.087 314.497 133.627C315.147 133.157 315.972 132.922 316.972 132.922C317.952 132.922 318.762 133.157 319.402 133.627C320.042 134.087 320.362 134.732 320.362 135.562V135.787C320.362 136.497 320.122 137.077 319.642 137.527C319.172 137.967 318.552 138.252 317.782 138.382V140.002ZM315.007 135.772C315.007 136.222 315.187 136.582 315.547 136.852C315.917 137.112 316.392 137.242 316.972 137.242C317.532 137.242 317.992 137.112 318.352 136.852C318.722 136.582 318.907 136.222 318.907 135.772V135.577C318.907 135.127 318.722 134.772 318.352 134.512C317.992 134.252 317.532 134.122 316.972 134.122C316.392 134.122 315.917 134.252 315.547 134.512C315.187 134.772 315.007 135.127 315.007 135.577V135.772ZM333.656 139.147V138.007H337.541V129.247H339.026V140.332H337.541V139.147H333.656ZM331.676 134.842C330.576 134.842 329.676 134.622 328.976 134.182C328.276 133.732 327.926 133.102 327.926 132.292V132.112C327.926 131.292 328.276 130.662 328.976 130.222C329.676 129.772 330.576 129.547 331.676 129.547C332.776 129.547 333.671 129.772 334.361 130.222C335.061 130.662 335.411 131.292 335.411 132.112V132.292C335.411 133.102 335.061 133.732 334.361 134.182C333.661 134.622 332.766 134.842 331.676 134.842ZM329.351 132.262C329.351 132.682 329.566 133.012 329.996 133.252C330.426 133.492 330.986 133.612 331.676 133.612C332.366 133.612 332.921 133.492 333.341 133.252C333.771 133.012 333.986 132.682 333.986 132.262V132.142C333.986 131.712 333.771 131.377 333.341 131.137C332.921 130.897 332.366 130.777 331.676 130.777C330.986 130.777 330.426 130.897 329.996 131.137C329.566 131.377 329.351 131.712 329.351 132.142V132.262ZM330.581 139.357C330.611 139.087 330.661 138.527 330.731 137.677L330.776 137.197C330.506 137.207 330.126 137.212 329.636 137.212H327.311L327.251 135.952H329.756C330.636 135.952 331.691 135.912 332.921 135.832C334.151 135.752 335.306 135.647 336.386 135.517L336.536 136.747C335.216 136.927 333.776 137.057 332.216 137.137C332.166 138.007 332.101 138.782 332.021 139.462L330.581 139.357ZM331.166 139.957V141.802H339.611V143.167H329.681V139.957H331.166Z" fill="white"/>
</svg>
