<svg width="617" height="449" viewBox="0 0 617 449" fill="none" xmlns="http://www.w3.org/2000/svg">
<path d="M602.39 421.108V419.623H609.185V421.108H602.39ZM606.725 427.258C607.655 427.958 608.52 429.093 609.32 430.663L608.09 431.398C607.45 430.128 606.765 429.198 606.035 428.608C605.305 428.008 604.49 427.708 603.59 427.708H602.795V426.223H603.59C604.26 426.223 604.895 426.338 605.495 426.568L607.82 422.578L609.035 423.313L606.725 427.258ZM613.79 427.333H615.11V419.113H616.385V428.833H612.56V421.108H611.3V428.893H610.055V419.623H613.79V427.333ZM605.72 410.035C607.61 410.785 609.07 412.805 610.1 416.095L608.765 416.665C608.265 415.015 607.64 413.715 606.89 412.765C606.14 411.815 605.34 411.3 604.49 411.22V416.35H603.125V409.705H603.905C604.045 409.705 604.245 409.715 604.505 409.735V406.885H602.39V405.4H609.98V406.885H608.405V410.05H607.19V406.885H605.72V410.035ZM610.715 408.535C610.715 407.875 610.84 407.295 611.09 406.795C611.33 406.285 611.67 405.895 612.11 405.625C612.54 405.345 613.03 405.205 613.58 405.205C614.14 405.205 614.635 405.345 615.065 405.625C615.505 405.895 615.845 406.285 616.085 406.795C616.335 407.295 616.46 407.875 616.46 408.535V411.58C616.46 412.24 616.335 412.82 616.085 413.32C615.845 413.82 615.505 414.21 615.065 414.49C614.635 414.76 614.14 414.895 613.58 414.895C613.03 414.895 612.54 414.76 612.11 414.49C611.67 414.21 611.33 413.82 611.09 413.32C610.84 412.82 610.715 412.24 610.715 411.58V408.535ZM615.11 408.775C615.11 408.105 614.97 407.595 614.69 407.245C614.41 406.885 614.04 406.705 613.58 406.705C613.12 406.705 612.75 406.885 612.47 407.245C612.19 407.595 612.05 408.105 612.05 408.775V411.325C612.05 411.995 612.19 412.51 612.47 412.87C612.75 413.22 613.12 413.395 613.58 413.395C614.04 413.395 614.41 413.22 614.69 412.87C614.97 412.51 615.11 411.995 615.11 411.325V408.775ZM602.39 391.956H605.885V389.796H607.235V391.956H612.815V393.456H602.39V391.956ZM607.64 399.336C608.77 400.036 609.815 401.106 610.775 402.546L609.62 403.386C608.8 402.166 607.935 401.266 607.025 400.686C606.115 400.106 605.105 399.816 603.995 399.816H602.915V398.361H603.995C604.835 398.361 605.61 398.486 606.32 398.736L609.365 394.836L610.49 395.691L607.64 399.336ZM611.945 400.881V399.381H614.945V391.236H616.31V400.881H611.945ZM606.485 382.667C607.605 383.637 608.58 385.227 609.41 387.437L608.105 388.037C607.435 386.307 606.715 385.037 605.945 384.227C605.175 383.417 604.35 383.012 603.47 383.012H602.615V381.512H603.47C604.1 381.512 604.695 381.637 605.255 381.887L608.15 376.637L609.41 377.357L606.485 382.667ZM610.97 388.877V375.797H612.32V381.587H616.46V383.072H612.32V388.877H610.97ZM607.76 363.374V361.349H609.125V363.374H616.31V364.874H602.39V363.374H607.76ZM603.98 369.824V366.554H605.225V374.624H603.98V371.339H602.405V369.824H603.98ZM613.145 369.749C613.075 368.529 612.965 367.289 612.815 366.029L614.12 365.864C614.26 366.884 614.37 368.009 614.45 369.239C614.53 370.459 614.57 371.574 614.57 372.584V374.789L613.235 374.864V372.464C613.235 372.254 613.225 371.849 613.205 371.249H611.54C611.44 372.069 611.165 372.734 610.715 373.244C610.255 373.744 609.66 373.994 608.93 373.994H608.705C607.875 373.994 607.23 373.674 606.77 373.034C606.3 372.384 606.065 371.559 606.065 370.559C606.065 369.579 606.3 368.769 606.77 368.129C607.23 367.489 607.875 367.169 608.705 367.169H608.93C609.64 367.169 610.22 367.409 610.67 367.889C611.11 368.359 611.395 368.979 611.525 369.749H613.145ZM608.915 372.524C609.365 372.524 609.725 372.344 609.995 371.984C610.255 371.614 610.385 371.139 610.385 370.559C610.385 369.999 610.255 369.539 609.995 369.179C609.725 368.809 609.365 368.624 608.915 368.624H608.72C608.27 368.624 607.915 368.809 607.655 369.179C607.395 369.539 607.265 369.999 607.265 370.559C607.265 371.139 607.395 371.614 607.655 371.984C607.915 372.344 608.27 372.524 608.72 372.524H608.915Z" fill="#737373"/>
<rect width="2" height="12" transform="matrix(0 -1 -1 0 614 358)" fill="#8FBFC9"/>
<path d="M573.72 395.811C575.61 396.561 577.07 398.581 578.1 401.871L576.765 402.441C576.265 400.791 575.64 399.491 574.89 398.541C574.14 397.591 573.34 397.076 572.49 396.996V402.126H571.125V395.481H571.905C572.045 395.481 572.245 395.491 572.505 395.511V392.661H570.39V391.176H577.98V392.661H576.405V395.826H575.19V392.661H573.72V395.811ZM578.715 394.311C578.715 393.651 578.84 393.071 579.09 392.571C579.33 392.061 579.67 391.671 580.11 391.401C580.54 391.121 581.03 390.981 581.58 390.981C582.14 390.981 582.635 391.121 583.065 391.401C583.505 391.671 583.845 392.061 584.085 392.571C584.335 393.071 584.46 393.651 584.46 394.311V397.356C584.46 398.016 584.335 398.596 584.085 399.096C583.845 399.596 583.505 399.986 583.065 400.266C582.635 400.536 582.14 400.671 581.58 400.671C581.03 400.671 580.54 400.536 580.11 400.266C579.67 399.986 579.33 399.596 579.09 399.096C578.84 398.596 578.715 398.016 578.715 397.356V394.311ZM583.11 394.551C583.11 393.881 582.97 393.371 582.69 393.021C582.41 392.661 582.04 392.481 581.58 392.481C581.12 392.481 580.75 392.661 580.47 393.021C580.19 393.371 580.05 393.881 580.05 394.551V397.101C580.05 397.771 580.19 398.286 580.47 398.646C580.75 398.996 581.12 399.171 581.58 399.171C582.04 399.171 582.41 398.996 582.69 398.646C582.97 398.286 583.11 397.771 583.11 397.101V394.551ZM578.205 378.452H570.39V376.952H578.205V378.452ZM575.43 384.527C576.46 385.247 577.405 386.412 578.265 388.022L577.065 388.727C576.365 387.467 575.645 386.542 574.905 385.952C574.155 385.352 573.315 385.052 572.385 385.052V388.172H571.05V380.462H572.385V383.597C573.045 383.597 573.66 383.702 574.23 383.912L576.75 379.922L577.98 380.657L575.43 384.527ZM580.44 378.452V386.312H579.075V376.952H584.46V378.452H580.44ZM578.64 367.364H581.895V361.574H583.275V374.654H581.895V368.849H578.64V373.049H571.32V363.314H572.685V371.549H577.29V363.164H578.64V367.364Z" fill="#737373"/>
<rect width="2" height="11" transform="matrix(0 -1 -1 0 581 358)" fill="#8FBFC9"/>
<path d="M545.805 427.288C546.765 427.978 547.635 429.133 548.415 430.753L547.17 431.398C546.6 430.268 545.995 429.413 545.355 428.833C544.715 428.243 544.005 427.923 543.225 427.873V430.918H541.89V427.843H540.225V426.388H541.89V423.268H543.225V426.403C543.735 426.433 544.19 426.518 544.59 426.658L546.945 422.788L548.19 423.523L545.805 427.288ZM545.205 423.838H543.915V421.123H540.39V419.623H548.28V421.123H545.205V423.838ZM549 422.758C549 422.088 549.115 421.503 549.345 421.003C549.575 420.503 549.895 420.118 550.305 419.848C550.715 419.578 551.19 419.443 551.73 419.443C552.27 419.443 552.745 419.578 553.155 419.848C553.565 420.118 553.885 420.503 554.115 421.003C554.345 421.503 554.46 422.088 554.46 422.758V425.803C554.46 426.473 554.345 427.058 554.115 427.558C553.885 428.058 553.565 428.443 553.155 428.713C552.745 428.983 552.27 429.118 551.73 429.118C551.19 429.118 550.715 428.983 550.305 428.713C549.895 428.443 549.575 428.058 549.345 427.558C549.115 427.058 549 426.473 549 425.803V422.758ZM553.11 422.998C553.11 422.328 552.985 421.818 552.735 421.468C552.485 421.108 552.145 420.928 551.715 420.928C551.295 420.928 550.96 421.108 550.71 421.468C550.45 421.818 550.32 422.328 550.32 422.998V425.563C550.32 426.233 550.45 426.748 550.71 427.108C550.96 427.458 551.295 427.633 551.715 427.633C552.145 427.633 552.485 427.458 552.735 427.108C552.985 426.748 553.11 426.233 553.11 425.563V422.998ZM546.795 410.035H548.025V404.245H549.24V417.325H548.025V411.52H546.795V415.585H543.15V407.485H541.92V415.645H540.69V405.985H544.35V414.085H545.58V405.7H546.795V410.035ZM551.7 407.335V415.72H550.41V405.835H554.46V407.335H551.7ZM540.39 391.956H543.885V389.796H545.235V391.956H550.815V393.456H540.39V391.956ZM545.64 399.336C546.77 400.036 547.815 401.106 548.775 402.546L547.62 403.386C546.8 402.166 545.935 401.266 545.025 400.686C544.115 400.106 543.105 399.816 541.995 399.816H540.915V398.361H541.995C542.835 398.361 543.61 398.486 544.32 398.736L547.365 394.836L548.49 395.691L545.64 399.336ZM549.945 400.881V399.381H552.945V391.236H554.31V400.881H549.945ZM544.485 382.667C545.605 383.637 546.58 385.227 547.41 387.437L546.105 388.037C545.435 386.307 544.715 385.037 543.945 384.227C543.175 383.417 542.35 383.012 541.47 383.012H540.615V381.512H541.47C542.1 381.512 542.695 381.637 543.255 381.887L546.15 376.637L547.41 377.357L544.485 382.667ZM548.97 388.877V375.797H550.32V381.587H554.46V383.072H550.32V388.877H548.97ZM545.76 363.374V361.349H547.125V363.374H554.31V364.874H540.39V363.374H545.76ZM541.98 369.824V366.554H543.225V374.624H541.98V371.339H540.405V369.824H541.98ZM551.145 369.749C551.075 368.529 550.965 367.289 550.815 366.029L552.12 365.864C552.26 366.884 552.37 368.009 552.45 369.239C552.53 370.459 552.57 371.574 552.57 372.584V374.789L551.235 374.864V372.464C551.235 372.254 551.225 371.849 551.205 371.249H549.54C549.44 372.069 549.165 372.734 548.715 373.244C548.255 373.744 547.66 373.994 546.93 373.994H546.705C545.875 373.994 545.23 373.674 544.77 373.034C544.3 372.384 544.065 371.559 544.065 370.559C544.065 369.579 544.3 368.769 544.77 368.129C545.23 367.489 545.875 367.169 546.705 367.169H546.93C547.64 367.169 548.22 367.409 548.67 367.889C549.11 368.359 549.395 368.979 549.525 369.749H551.145ZM546.915 372.524C547.365 372.524 547.725 372.344 547.995 371.984C548.255 371.614 548.385 371.139 548.385 370.559C548.385 369.999 548.255 369.539 547.995 369.179C547.725 368.809 547.365 368.624 546.915 368.624H546.72C546.27 368.624 545.915 368.809 545.655 369.179C545.395 369.539 545.265 369.999 545.265 370.559C545.265 371.139 545.395 371.614 545.655 371.984C545.915 372.344 546.27 372.524 546.72 372.524H546.915Z" fill="#737373"/>
<rect width="6" height="11" transform="matrix(0 -1 -1 0 550 358)" fill="#8FBFC9"/>
<path d="M522.31 421.108H508.39V419.623H522.31V421.108ZM510.85 430.618H509.485V423.898H510.715C512.665 423.898 514.485 424.428 516.175 425.488C517.865 426.548 519.355 428.058 520.645 430.018L519.46 430.918C518.33 429.148 517.015 427.788 515.515 426.838C514.015 425.878 512.515 425.398 511.015 425.398H510.85V430.618ZM513.97 406.885V409.81H515.305V416.635H509.05V409.81H510.07V406.885H508.39V405.4H515.98V406.885H513.97ZM513.97 415.18V411.265H510.385V415.18H513.97ZM512.755 406.885H511.285V409.81H512.755V406.885ZM516.715 408.535C516.715 407.875 516.84 407.295 517.09 406.795C517.33 406.285 517.67 405.895 518.11 405.625C518.54 405.345 519.03 405.205 519.58 405.205C520.14 405.205 520.635 405.345 521.065 405.625C521.505 405.895 521.845 406.285 522.085 406.795C522.335 407.295 522.46 407.875 522.46 408.535V411.58C522.46 412.24 522.335 412.82 522.085 413.32C521.845 413.82 521.505 414.21 521.065 414.49C520.635 414.76 520.14 414.895 519.58 414.895C519.03 414.895 518.54 414.76 518.11 414.49C517.67 414.21 517.33 413.82 517.09 413.32C516.84 412.82 516.715 412.24 516.715 411.58V408.535ZM521.11 408.775C521.11 408.105 520.97 407.595 520.69 407.245C520.41 406.885 520.04 406.705 519.58 406.705C519.12 406.705 518.75 406.885 518.47 407.245C518.19 407.595 518.05 408.105 518.05 408.775V411.325C518.05 411.995 518.19 412.51 518.47 412.87C518.75 413.22 519.12 413.395 519.58 413.395C520.04 413.395 520.41 413.22 520.69 412.87C520.97 412.51 521.11 411.995 521.11 411.325V408.775ZM512.335 395.391H511.045V392.661H508.39V391.176H515.185V392.661H512.335V395.391ZM513.04 398.886C513.93 399.566 514.74 400.701 515.47 402.291L514.24 402.936C513.65 401.736 513.045 400.851 512.425 400.281C511.805 399.701 511.1 399.401 510.31 399.381V402.396H508.975V394.881H510.31V397.926C510.87 397.946 511.385 398.041 511.855 398.211L513.985 394.356L515.26 395.046L513.04 398.886ZM519.79 398.886H521.11V390.666H522.385V400.386H518.56V392.661H517.3V400.446H516.055V391.176H519.79V398.886ZM522.31 378.452H508.39V376.952H522.31V378.452ZM511.435 383.597C512.475 383.597 513.485 383.727 514.465 383.987L519.28 379.907L520.27 381.002L516.04 384.557C517.5 385.217 518.96 386.252 520.42 387.662L519.415 388.727C518.125 387.487 516.86 386.567 515.62 385.967C514.37 385.367 512.975 385.067 511.435 385.067H510.85V388.172H509.485V380.462H510.85V383.597H511.435ZM513.76 363.374V361.349H515.125V363.374H522.31V364.874H508.39V363.374H513.76ZM509.98 369.824V366.554H511.225V374.624H509.98V371.339H508.405V369.824H509.98ZM519.145 369.749C519.075 368.529 518.965 367.289 518.815 366.029L520.12 365.864C520.26 366.884 520.37 368.009 520.45 369.239C520.53 370.459 520.57 371.574 520.57 372.584V374.789L519.235 374.864V372.464C519.235 372.254 519.225 371.849 519.205 371.249H517.54C517.44 372.069 517.165 372.734 516.715 373.244C516.255 373.744 515.66 373.994 514.93 373.994H514.705C513.875 373.994 513.23 373.674 512.77 373.034C512.3 372.384 512.065 371.559 512.065 370.559C512.065 369.579 512.3 368.769 512.77 368.129C513.23 367.489 513.875 367.169 514.705 367.169H514.93C515.64 367.169 516.22 367.409 516.67 367.889C517.11 368.359 517.395 368.979 517.525 369.749H519.145ZM514.915 372.524C515.365 372.524 515.725 372.344 515.995 371.984C516.255 371.614 516.385 371.139 516.385 370.559C516.385 369.999 516.255 369.539 515.995 369.179C515.725 368.809 515.365 368.624 514.915 368.624H514.72C514.27 368.624 513.915 368.809 513.655 369.179C513.395 369.539 513.265 369.999 513.265 370.559C513.265 371.139 513.395 371.614 513.655 371.984C513.915 372.344 514.27 372.524 514.72 372.524H514.915Z" fill="#737373"/>
<rect width="10" height="12" transform="matrix(0 -1 -1 0 519 358)" fill="#8FBFC9"/>
<path d="M484.64 395.811H487.895V390.021H489.275V403.101H487.895V397.296H484.64V401.496H477.32V399.996H483.275V391.551H484.64V395.811ZM479.69 382.712C480.53 383.622 481.225 385.167 481.775 387.347L480.47 387.782C480.05 386.162 479.56 384.962 479 384.182C478.44 383.392 477.82 382.997 477.14 382.997H476.54V381.527H477.14C477.66 381.527 478.125 381.627 478.535 381.827L480.53 376.892L481.775 377.447L479.69 382.712ZM481.31 381.587H482.78V375.797H484.07V388.877H482.78V383.072H481.31V381.587ZM485.405 380.747C485.405 380.017 485.515 379.392 485.735 378.872C485.945 378.342 486.24 377.942 486.62 377.672C487 377.392 487.435 377.252 487.925 377.252C488.675 377.252 489.285 377.562 489.755 378.182C490.225 378.792 490.46 379.647 490.46 380.747V383.927C490.46 385.027 490.225 385.887 489.755 386.507C489.285 387.117 488.675 387.422 487.925 387.422C487.435 387.422 487 387.287 486.62 387.017C486.24 386.737 485.945 386.337 485.735 385.817C485.515 385.287 485.405 384.657 485.405 383.927V380.747ZM489.155 381.032C489.155 380.262 489.045 379.687 488.825 379.307C488.605 378.927 488.3 378.737 487.91 378.737C487.53 378.737 487.235 378.927 487.025 379.307C486.805 379.687 486.695 380.262 486.695 381.032V383.627C486.695 384.397 486.805 384.972 487.025 385.352C487.235 385.732 487.53 385.922 487.91 385.922C488.3 385.922 488.605 385.732 488.825 385.352C489.045 384.972 489.155 384.397 489.155 383.627V381.032ZM484.64 367.364H487.895V361.574H489.275V374.654H487.895V368.849H484.64V373.049H477.32V363.314H478.685V371.549H483.29V363.164H484.64V367.364Z" fill="#737373"/>
<rect width="10" height="11" transform="matrix(0 -1 -1 0 487 358)" fill="#8FBFC9"/>
<path d="M445.39 392.676V391.176H459.31V392.676H452.125V395.196H452.83C454.41 395.196 455.585 395.536 456.355 396.216C457.115 396.896 457.495 397.781 457.495 398.871C457.495 399.971 457.115 400.866 456.355 401.556C455.585 402.236 454.41 402.576 452.83 402.576H450.715C449.135 402.576 447.965 402.236 447.205 401.556C446.435 400.866 446.05 399.971 446.05 398.871C446.05 397.781 446.435 396.896 447.205 396.216C447.965 395.536 449.135 395.196 450.715 395.196H450.76V392.676H445.39ZM450.73 396.681C449.58 396.681 448.74 396.881 448.21 397.281C447.68 397.681 447.415 398.211 447.415 398.871C447.415 399.541 447.68 400.076 448.21 400.476C448.74 400.876 449.58 401.076 450.73 401.076H452.815C453.955 401.076 454.795 400.876 455.335 400.476C455.865 400.066 456.13 399.531 456.13 398.871C456.13 398.211 455.865 397.681 455.335 397.281C454.795 396.881 453.955 396.681 452.815 396.681H450.73ZM450.625 378.197H445.39V376.742H459.31V378.197H451.99V379.967H459.025V381.392H445.6V379.967H450.625V378.197ZM445.405 386.342V384.827H447.43V382.322H448.78V388.862H447.43V386.342H445.405ZM450.025 385.562C450.025 385.032 450.16 384.567 450.43 384.167C450.7 383.757 451.085 383.442 451.585 383.222C452.075 382.992 452.65 382.877 453.31 382.877H454.12C454.78 382.877 455.36 382.992 455.86 383.222C456.36 383.442 456.745 383.757 457.015 384.167C457.285 384.567 457.42 385.032 457.42 385.562C457.42 386.102 457.285 386.577 457.015 386.987C456.745 387.397 456.36 387.717 455.86 387.947C455.36 388.177 454.78 388.292 454.12 388.292H453.31C452.65 388.292 452.075 388.177 451.585 387.947C451.085 387.717 450.7 387.397 450.43 386.987C450.16 386.577 450.025 386.102 450.025 385.562ZM453.415 384.257C452.785 384.257 452.29 384.377 451.93 384.617C451.56 384.857 451.375 385.177 451.375 385.577C451.375 385.977 451.56 386.302 451.93 386.552C452.29 386.792 452.785 386.912 453.415 386.912H454.03C454.66 386.912 455.16 386.792 455.53 386.552C455.9 386.302 456.085 385.977 456.085 385.577C456.085 385.187 455.9 384.872 455.53 384.632C455.16 384.382 454.66 384.257 454.03 384.257H453.415ZM450.76 363.374V361.349H452.125V363.374H459.31V364.874H445.39V363.374H450.76ZM446.98 369.824V366.554H448.225V374.624H446.98V371.339H445.405V369.824H446.98ZM456.145 369.749C456.075 368.529 455.965 367.289 455.815 366.029L457.12 365.864C457.26 366.884 457.37 368.009 457.45 369.239C457.53 370.459 457.57 371.574 457.57 372.584V374.789L456.235 374.864V372.464C456.235 372.254 456.225 371.849 456.205 371.249H454.54C454.44 372.069 454.165 372.734 453.715 373.244C453.255 373.744 452.66 373.994 451.93 373.994H451.705C450.875 373.994 450.23 373.674 449.77 373.034C449.3 372.384 449.065 371.559 449.065 370.559C449.065 369.579 449.3 368.769 449.77 368.129C450.23 367.489 450.875 367.169 451.705 367.169H451.93C452.64 367.169 453.22 367.409 453.67 367.889C454.11 368.359 454.395 368.979 454.525 369.749H456.145ZM451.915 372.524C452.365 372.524 452.725 372.344 452.995 371.984C453.255 371.614 453.385 371.139 453.385 370.559C453.385 369.999 453.255 369.539 452.995 369.179C452.725 368.809 452.365 368.624 451.915 368.624H451.72C451.27 368.624 450.915 368.809 450.655 369.179C450.395 369.539 450.265 369.999 450.265 370.559C450.265 371.139 450.395 371.614 450.655 371.984C450.915 372.344 451.27 372.524 451.72 372.524H451.915Z" fill="#737373"/>
<rect width="12" height="10" transform="matrix(0 -1 -1 0 455 358)" fill="#8FBFC9"/>
<path d="M421.025 402.291C419.645 398.991 418.16 397.311 416.57 397.251V401.496H415.205V397.251H413.525V395.751H415.205V391.611H416.57V395.751C417.11 395.771 417.615 395.886 418.085 396.096L421.055 390.831L422.36 391.566L419.285 396.876C420.425 397.846 421.45 399.436 422.36 401.646L421.025 402.291ZM421.925 395.811H424.88V390.021H426.245V403.101H424.88V397.296H421.925V395.811ZM413.39 377.732H416.3V375.572H417.665V377.732H420.98V379.232H413.39V377.732ZM418.115 385.127C419.145 385.797 420.09 386.877 420.95 388.367L419.75 389.162C419.03 387.942 418.265 387.042 417.455 386.462C416.645 385.882 415.745 385.592 414.755 385.592H413.84V384.137H414.755C415.495 384.137 416.195 384.252 416.855 384.482L419.48 380.612L420.65 381.422L418.115 385.127ZM421.715 380.717C421.715 380.057 421.84 379.477 422.09 378.977C422.33 378.477 422.67 378.092 423.11 377.822C423.54 377.552 424.03 377.417 424.58 377.417C425.14 377.417 425.635 377.552 426.065 377.822C426.505 378.092 426.845 378.477 427.085 378.977C427.335 379.477 427.46 380.057 427.46 380.717V383.657C427.46 384.307 427.335 384.882 427.085 385.382C426.845 385.882 426.505 386.267 426.065 386.537C425.635 386.807 425.14 386.942 424.58 386.942C424.03 386.942 423.54 386.807 423.11 386.537C422.67 386.267 422.33 385.882 422.09 385.382C421.84 384.882 421.715 384.307 421.715 383.657V380.717ZM426.11 380.957C426.11 380.297 425.97 379.792 425.69 379.442C425.41 379.092 425.04 378.917 424.58 378.917C424.12 378.917 423.75 379.092 423.47 379.442C423.19 379.792 423.05 380.297 423.05 380.957V383.402C423.05 384.062 423.19 384.572 423.47 384.932C423.75 385.282 424.12 385.457 424.58 385.457C425.04 385.457 425.41 385.282 425.69 384.932C425.97 384.572 426.11 384.062 426.11 383.402V380.957ZM418.76 363.374V361.349H420.125V363.374H427.31V364.874H413.39V363.374H418.76ZM414.98 369.824V366.554H416.225V374.624H414.98V371.339H413.405V369.824H414.98ZM424.145 369.749C424.075 368.529 423.965 367.289 423.815 366.029L425.12 365.864C425.26 366.884 425.37 368.009 425.45 369.239C425.53 370.459 425.57 371.574 425.57 372.584V374.789L424.235 374.864V372.464C424.235 372.254 424.225 371.849 424.205 371.249H422.54C422.44 372.069 422.165 372.734 421.715 373.244C421.255 373.744 420.66 373.994 419.93 373.994H419.705C418.875 373.994 418.23 373.674 417.77 373.034C417.3 372.384 417.065 371.559 417.065 370.559C417.065 369.579 417.3 368.769 417.77 368.129C418.23 367.489 418.875 367.169 419.705 367.169H419.93C420.64 367.169 421.22 367.409 421.67 367.889C422.11 368.359 422.395 368.979 422.525 369.749H424.145ZM419.915 372.524C420.365 372.524 420.725 372.344 420.995 371.984C421.255 371.614 421.385 371.139 421.385 370.559C421.385 369.999 421.255 369.539 420.995 369.179C420.725 368.809 420.365 368.624 419.915 368.624H419.72C419.27 368.624 418.915 368.809 418.655 369.179C418.395 369.539 418.265 369.999 418.265 370.559C418.265 371.139 418.395 371.614 418.655 371.984C418.915 372.344 419.27 372.524 419.72 372.524H419.915Z" fill="#737373"/>
<rect width="23" height="12" transform="matrix(0 -1 -1 0 424 358)" fill="#8FBFC9"/>
<path d="M389.64 395.811H392.895V390.021H394.275V403.101H392.895V397.296H389.64V401.496H382.32V391.611H389.64V395.811ZM383.685 393.111V399.996H388.29V393.111H383.685ZM381.39 377.732H385.17V375.572H386.535V377.732H391.965V379.232H381.39V377.732ZM389.565 380.477C389.875 382.187 390.03 384.022 390.03 385.982V388.547H385.35V383.567H383.46V388.547H382.125V382.082H386.67V387.047H388.68V385.727C388.68 384.157 388.54 382.467 388.26 380.657L389.565 380.477ZM391.245 386.642V385.157H393.945V377.012H395.31V386.642H391.245ZM389.64 367.364H392.895V361.574H394.275V374.654H392.895V368.849H389.64V373.049H382.32V363.314H383.685V371.549H388.29V363.164H389.64V367.364Z" fill="#737373"/>
<rect width="28" height="10" transform="matrix(0 -1 -1 0 392 358)" fill="#8FBFC9"/>
<path d="M364.31 392.676H350.39V391.176H364.31V392.676ZM352.85 396.366V401.991H351.485V394.881H352.58C354.48 394.881 356.605 395.101 358.955 395.541L358.73 396.996C357.68 396.806 356.64 396.656 355.61 396.546C354.57 396.426 353.71 396.366 353.03 396.366H352.85ZM360.74 398.736C360.68 397.186 360.55 395.556 360.35 393.846L361.67 393.681C361.82 394.711 361.935 395.856 362.015 397.116C362.105 398.366 362.15 399.521 362.15 400.581V402.891L360.785 402.966V400.446V400.221H355.805V398.736H360.74ZM353.09 378.452H350.39V376.952H358.205V378.452H354.425V381.467H353.09V378.452ZM355.205 384.707C356.255 385.397 357.22 386.477 358.1 387.947L356.915 388.742C356.175 387.522 355.39 386.622 354.56 386.042C353.72 385.462 352.795 385.172 351.785 385.172H350.84V383.717H351.785C352.555 383.717 353.27 383.837 353.93 384.077L356.72 380.192L357.875 381.002L355.205 384.707ZM360.44 378.452V386.312H359.075V376.952H364.46V378.452H360.44ZM358.64 367.364H361.895V361.574H363.275V374.654H361.895V368.849H358.64V373.049H351.32V363.314H352.685V371.549H357.29V363.164H358.64V367.364Z" fill="#737373"/>
<rect width="40" height="10" transform="matrix(0 -1 -1 0 360 358)" fill="#8FBFC9"/>
<path d="M326.025 402.291C324.645 398.991 323.16 397.311 321.57 397.251V401.496H320.205V397.251H318.525V395.751H320.205V391.611H321.57V395.751C322.11 395.771 322.615 395.886 323.085 396.096L326.055 390.831L327.36 391.566L324.285 396.876C325.425 397.846 326.45 399.436 327.36 401.646L326.025 402.291ZM326.925 395.811H329.88V390.021H331.245V403.101H329.88V397.296H326.925V395.811ZM323.52 387.872C322.83 384.792 321.91 383.167 320.76 382.997V387.137H319.44V383.012H318.165V381.542H319.44V377.537H320.76V381.572C321.16 381.602 321.505 381.687 321.795 381.827L323.55 376.817L324.78 377.312L322.86 382.667C323.63 383.577 324.27 385.167 324.78 387.437L323.52 387.872ZM326.7 375.797V381.587H327.975V380.702C327.975 379.602 328.18 378.752 328.59 378.152C328.99 377.552 329.53 377.252 330.21 377.252C330.9 377.252 331.445 377.552 331.845 378.152C332.255 378.752 332.46 379.602 332.46 380.702V383.972C332.46 385.072 332.255 385.922 331.845 386.522C331.445 387.122 330.9 387.422 330.21 387.422C329.53 387.422 328.99 387.122 328.59 386.522C328.18 385.922 327.975 385.072 327.975 383.972V383.072H326.7V388.877H325.44V375.797H326.7ZM330.21 378.737C329.53 378.737 329.19 379.502 329.19 381.032V383.627C329.19 385.157 329.53 385.922 330.21 385.922C330.89 385.922 331.23 385.157 331.23 383.627V381.032C331.23 379.502 330.89 378.737 330.21 378.737ZM326.64 367.364H329.895V361.574H331.275V374.654H329.895V368.849H326.64V373.049H319.32V363.314H320.685V371.549H325.29V363.164H326.64V367.364Z" fill="#737373"/>
<rect width="51" height="11" transform="matrix(0 -1 -1 0 329 358)" fill="#8FBFC9"/>
<path d="M291.76 391.821V389.796H293.125V391.821H300.31V393.321H286.39V391.821H291.76ZM287.98 398.271V395.001H289.225V403.071H287.98V399.786H286.405V398.271H287.98ZM297.145 398.196C297.075 396.976 296.965 395.736 296.815 394.476L298.12 394.311C298.26 395.331 298.37 396.456 298.45 397.686C298.53 398.906 298.57 400.021 298.57 401.031V403.236L297.235 403.311V400.911C297.235 400.701 297.225 400.296 297.205 399.696H295.54C295.44 400.516 295.165 401.181 294.715 401.691C294.255 402.191 293.66 402.441 292.93 402.441H292.705C291.875 402.441 291.23 402.121 290.77 401.481C290.3 400.831 290.065 400.006 290.065 399.006C290.065 398.026 290.3 397.216 290.77 396.576C291.23 395.936 291.875 395.616 292.705 395.616H292.93C293.64 395.616 294.22 395.856 294.67 396.336C295.11 396.806 295.395 397.426 295.525 398.196H297.145ZM292.915 400.971C293.365 400.971 293.725 400.791 293.995 400.431C294.255 400.061 294.385 399.586 294.385 399.006C294.385 398.446 294.255 397.986 293.995 397.626C293.725 397.256 293.365 397.071 292.915 397.071H292.72C292.27 397.071 291.915 397.256 291.655 397.626C291.395 397.986 291.265 398.446 291.265 399.006C291.265 399.586 291.395 400.061 291.655 400.431C291.915 400.791 292.27 400.971 292.72 400.971H292.915ZM300.31 378.047H286.39V376.592H300.31V378.047ZM287.785 384.722V382.097H288.97V388.847H287.785V386.237H286.405V384.722H287.785ZM297.595 383.927V380.987H286.6V379.577H300.025V380.987H298.93V383.927H297.595ZM291.865 388.322C291.155 388.322 290.61 388.062 290.23 387.542C289.84 387.012 289.645 386.317 289.645 385.457C289.645 384.607 289.84 383.922 290.23 383.402C290.61 382.872 291.155 382.607 291.865 382.607H292.045C292.755 382.607 293.305 382.872 293.695 383.402C294.085 383.922 294.28 384.607 294.28 385.457C294.28 386.317 294.085 387.012 293.695 387.542C293.305 388.062 292.755 388.322 292.045 388.322H291.865ZM291.895 384.002C291.555 384.002 291.285 384.137 291.085 384.407C290.885 384.667 290.785 385.017 290.785 385.457C290.785 385.907 290.885 386.267 291.085 386.537C291.285 386.807 291.555 386.942 291.895 386.942H292.015C292.355 386.942 292.63 386.807 292.84 386.537C293.04 386.267 293.14 385.907 293.14 385.457C293.14 385.017 293.04 384.667 292.84 384.407C292.63 384.137 292.355 384.002 292.015 384.002H291.895ZM296.23 381.767C296.37 382.737 296.47 383.762 296.53 384.842C297.89 384.942 299.185 385.072 300.415 385.232L300.25 386.627C298.95 386.467 297.73 386.342 296.59 386.252C296.6 386.522 296.605 386.907 296.605 387.407V388.922L295.27 388.997V387.317C295.27 386.587 295.245 385.722 295.195 384.722C295.135 383.722 295.05 382.792 294.94 381.932L296.23 381.767ZM291.76 363.374V361.349H293.125V363.374H300.31V364.874H286.39V363.374H291.76ZM287.98 369.824V366.554H289.225V374.624H287.98V371.339H286.405V369.824H287.98ZM297.145 369.749C297.075 368.529 296.965 367.289 296.815 366.029L298.12 365.864C298.26 366.884 298.37 368.009 298.45 369.239C298.53 370.459 298.57 371.574 298.57 372.584V374.789L297.235 374.864V372.464C297.235 372.254 297.225 371.849 297.205 371.249H295.54C295.44 372.069 295.165 372.734 294.715 373.244C294.255 373.744 293.66 373.994 292.93 373.994H292.705C291.875 373.994 291.23 373.674 290.77 373.034C290.3 372.384 290.065 371.559 290.065 370.559C290.065 369.579 290.3 368.769 290.77 368.129C291.23 367.489 291.875 367.169 292.705 367.169H292.93C293.64 367.169 294.22 367.409 294.67 367.889C295.11 368.359 295.395 368.979 295.525 369.749H297.145ZM292.915 372.524C293.365 372.524 293.725 372.344 293.995 371.984C294.255 371.614 294.385 371.139 294.385 370.559C294.385 369.999 294.255 369.539 293.995 369.179C293.725 368.809 293.365 368.624 292.915 368.624H292.72C292.27 368.624 291.915 368.809 291.655 369.179C291.395 369.539 291.265 369.999 291.265 370.559C291.265 371.139 291.395 371.614 291.655 371.984C291.915 372.344 292.27 372.524 292.72 372.524H292.915Z" fill="#737373"/>
<rect width="60" height="10" transform="matrix(0 -1 -1 0 297 358)" fill="#8FBFC9"/>
<path d="M257.835 421.483V430.168H256.47V419.998H257.685C258.675 419.998 259.785 420.063 261.015 420.193C262.245 420.323 263.465 420.498 264.675 420.718L264.435 422.188C263.305 421.978 262.15 421.808 260.97 421.678C259.79 421.548 258.835 421.483 258.105 421.483H257.835ZM261.315 425.278H266.895V418.468H268.275V431.548H266.895V426.763H261.315V425.278ZM260.625 406.18V404.035H261.99V406.18H269.31V407.68H255.39V406.18H260.625ZM258.015 412.675C259.185 412.675 260.305 412.81 261.375 413.08L266.325 409.12L267.27 410.245L263.025 413.635C264.555 414.275 266.02 415.265 267.42 416.605L266.43 417.67C265.16 416.45 263.855 415.56 262.515 415C261.165 414.43 259.665 414.145 258.015 414.145H256.2V412.675H258.015ZM265.815 391.161V392.661H255.39V391.161H265.815ZM263.535 398.826C263.535 399.536 263.395 400.176 263.115 400.746C262.835 401.306 262.415 401.751 261.855 402.081C261.295 402.401 260.61 402.561 259.8 402.561H259.515C258.695 402.561 258.005 402.401 257.445 402.081C256.875 401.751 256.455 401.306 256.185 400.746C255.905 400.176 255.765 399.536 255.765 398.826C255.765 398.126 255.905 397.496 256.185 396.936C256.455 396.366 256.875 395.921 257.445 395.601C258.005 395.271 258.695 395.106 259.515 395.106H259.8C260.61 395.106 261.295 395.271 261.855 395.601C262.415 395.921 262.835 396.366 263.115 396.936C263.395 397.496 263.535 398.126 263.535 398.826ZM262.215 398.826C262.215 398.176 262.005 397.646 261.585 397.236C261.165 396.816 260.56 396.606 259.77 396.606H259.53C258.74 396.606 258.135 396.816 257.715 397.236C257.295 397.646 257.085 398.176 257.085 398.826C257.085 399.486 257.295 400.026 257.715 400.446C258.135 400.856 258.74 401.061 259.53 401.061H259.77C260.56 401.061 261.165 400.856 261.585 400.446C262.005 400.026 262.215 399.486 262.215 398.826ZM269.31 390.576V400.371H264.795V398.871H267.945V390.576H269.31ZM255.615 387.137V377.537H259.905V387.137H255.615ZM258.705 385.637V379.037H256.815V385.637H258.705ZM260.94 375.797H262.17V381.587H263.385V377.387H266.94V385.772H268.17V377.027H269.385V387.272H265.755V378.887H264.585V387.347H263.385V383.072H262.17V388.877H260.94V375.797ZM260.76 363.374V361.349H262.125V363.374H269.31V364.874H255.39V363.374H260.76ZM256.98 369.824V366.554H258.225V374.624H256.98V371.339H255.405V369.824H256.98ZM266.145 369.749C266.075 368.529 265.965 367.289 265.815 366.029L267.12 365.864C267.26 366.884 267.37 368.009 267.45 369.239C267.53 370.459 267.57 371.574 267.57 372.584V374.789L266.235 374.864V372.464C266.235 372.254 266.225 371.849 266.205 371.249H264.54C264.44 372.069 264.165 372.734 263.715 373.244C263.255 373.744 262.66 373.994 261.93 373.994H261.705C260.875 373.994 260.23 373.674 259.77 373.034C259.3 372.384 259.065 371.559 259.065 370.559C259.065 369.579 259.3 368.769 259.77 368.129C260.23 367.489 260.875 367.169 261.705 367.169H261.93C262.64 367.169 263.22 367.409 263.67 367.889C264.11 368.359 264.395 368.979 264.525 369.749H266.145ZM261.915 372.524C262.365 372.524 262.725 372.344 262.995 371.984C263.255 371.614 263.385 371.139 263.385 370.559C263.385 369.999 263.255 369.539 262.995 369.179C262.725 368.809 262.365 368.624 261.915 368.624H261.72C261.27 368.624 260.915 368.809 260.655 369.179C260.395 369.539 260.265 369.999 260.265 370.559C260.265 371.139 260.395 371.614 260.655 371.984C260.915 372.344 261.27 372.524 261.72 372.524H261.915Z" fill="#737373"/>
<rect width="69" height="10" transform="matrix(0 -1 -1 0 265 358)" fill="#8FBFC9"/>
<path d="M228.97 395.631C229.48 395.941 229.865 396.381 230.125 396.951C230.385 397.511 230.515 398.151 230.515 398.871C230.515 399.571 230.395 400.201 230.155 400.761C229.905 401.311 229.535 401.751 229.045 402.081C228.545 402.401 227.94 402.561 227.23 402.561H226.99C225.92 402.561 225.105 402.216 224.545 401.526C223.975 400.836 223.69 399.951 223.69 398.871C223.69 398.191 223.81 397.581 224.05 397.041C224.28 396.501 224.62 396.071 225.07 395.751V392.661H223.39V391.176H230.98V392.661H228.97V395.631ZM227.2 401.076C227.85 401.076 228.35 400.876 228.7 400.476C229.04 400.066 229.21 399.531 229.21 398.871C229.21 398.221 229.04 397.696 228.7 397.296C228.35 396.886 227.85 396.681 227.2 396.681H227.005C226.365 396.681 225.875 396.886 225.535 397.296C225.185 397.696 225.01 398.221 225.01 398.871C225.01 399.531 225.185 400.066 225.535 400.476C225.875 400.876 226.365 401.076 227.005 401.076H227.2ZM226.285 392.661V395.256C226.485 395.216 226.72 395.196 226.99 395.196H227.23C227.36 395.196 227.535 395.206 227.755 395.226V392.661H226.285ZM231.715 394.311C231.715 393.651 231.84 393.071 232.09 392.571C232.33 392.061 232.67 391.671 233.11 391.401C233.54 391.131 234.03 390.996 234.58 390.996C235.14 390.996 235.635 391.131 236.065 391.401C236.505 391.671 236.845 392.061 237.085 392.571C237.335 393.071 237.46 393.651 237.46 394.311V397.356C237.46 398.016 237.335 398.596 237.085 399.096C236.845 399.596 236.505 399.986 236.065 400.266C235.635 400.536 235.14 400.671 234.58 400.671C234.03 400.671 233.54 400.536 233.11 400.266C232.67 399.986 232.33 399.596 232.09 399.096C231.84 398.596 231.715 398.016 231.715 397.356V394.311ZM236.11 394.551C236.11 393.881 235.97 393.371 235.69 393.021C235.41 392.661 235.04 392.481 234.58 392.481C234.12 392.481 233.75 392.661 233.47 393.021C233.19 393.371 233.05 393.881 233.05 394.551V397.101C233.05 397.771 233.19 398.286 233.47 398.646C233.75 398.996 234.12 399.171 234.58 399.171C235.04 399.171 235.41 398.996 235.69 398.646C235.97 398.286 236.11 397.771 236.11 397.101V394.551ZM231.64 381.587H234.895V375.797H236.275V388.877H234.895V383.072H231.64V387.272H224.32V377.387H231.64V381.587ZM225.685 378.887V385.772H230.29V378.887H225.685ZM228.76 363.374V361.349H230.125V363.374H237.31V364.874H223.39V363.374H228.76ZM224.98 369.824V366.554H226.225V374.624H224.98V371.339H223.405V369.824H224.98ZM234.145 369.749C234.075 368.529 233.965 367.289 233.815 366.029L235.12 365.864C235.26 366.884 235.37 368.009 235.45 369.239C235.53 370.459 235.57 371.574 235.57 372.584V374.789L234.235 374.864V372.464C234.235 372.254 234.225 371.849 234.205 371.249H232.54C232.44 372.069 232.165 372.734 231.715 373.244C231.255 373.744 230.66 373.994 229.93 373.994H229.705C228.875 373.994 228.23 373.674 227.77 373.034C227.3 372.384 227.065 371.559 227.065 370.559C227.065 369.579 227.3 368.769 227.77 368.129C228.23 367.489 228.875 367.169 229.705 367.169H229.93C230.64 367.169 231.22 367.409 231.67 367.889C232.11 368.359 232.395 368.979 232.525 369.749H234.145ZM229.915 372.524C230.365 372.524 230.725 372.344 230.995 371.984C231.255 371.614 231.385 371.139 231.385 370.559C231.385 369.999 231.255 369.539 230.995 369.179C230.725 368.809 230.365 368.624 229.915 368.624H229.72C229.27 368.624 228.915 368.809 228.655 369.179C228.395 369.539 228.265 369.999 228.265 370.559C228.265 371.139 228.395 371.614 228.655 371.984C228.915 372.344 229.27 372.524 229.72 372.524H229.915Z" fill="#737373"/>
<rect width="82" height="11" transform="matrix(0 -1 -1 0 234 358)" fill="#8FBFC9"/>
<path d="M191.39 421.108V419.623H201.815V421.108H191.39ZM196.94 427.198C198.08 427.888 199.15 429.028 200.15 430.618L198.98 431.383C198.15 430.133 197.31 429.213 196.46 428.623C195.6 428.023 194.64 427.723 193.58 427.723H193.46V430.843H192.125V423.118H193.46V426.268H193.58C194.33 426.268 195.03 426.378 195.68 426.598L198.68 422.578L199.85 423.388L196.94 427.198ZM200.945 427.333H203.945V419.038H205.31V428.833H200.945V427.333ZM194.72 410.035C196.61 410.785 198.07 412.805 199.1 416.095L197.765 416.665C197.265 415.015 196.64 413.715 195.89 412.765C195.14 411.815 194.34 411.3 193.49 411.22V416.35H192.125V409.705H192.905C193.045 409.705 193.245 409.715 193.505 409.735V406.885H191.39V405.4H198.98V406.885H197.405V410.05H196.19V406.885H194.72V410.035ZM199.715 408.535C199.715 407.875 199.84 407.295 200.09 406.795C200.33 406.285 200.67 405.895 201.11 405.625C201.54 405.345 202.03 405.205 202.58 405.205C203.14 405.205 203.635 405.345 204.065 405.625C204.505 405.895 204.845 406.285 205.085 406.795C205.335 407.295 205.46 407.875 205.46 408.535V411.58C205.46 412.24 205.335 412.82 205.085 413.32C204.845 413.82 204.505 414.21 204.065 414.49C203.635 414.76 203.14 414.895 202.58 414.895C202.03 414.895 201.54 414.76 201.11 414.49C200.67 414.21 200.33 413.82 200.09 413.32C199.84 412.82 199.715 412.24 199.715 411.58V408.535ZM204.11 408.775C204.11 408.105 203.97 407.595 203.69 407.245C203.41 406.885 203.04 406.705 202.58 406.705C202.12 406.705 201.75 406.885 201.47 407.245C201.19 407.595 201.05 408.105 201.05 408.775V411.325C201.05 411.995 201.19 412.51 201.47 412.87C201.75 413.22 202.12 413.395 202.58 413.395C203.04 413.395 203.41 413.22 203.69 412.87C203.97 412.51 204.11 411.995 204.11 411.325V408.775ZM191.39 391.956H194.885V389.796H196.235V391.956H201.815V393.456H191.39V391.956ZM196.64 399.336C197.77 400.036 198.815 401.106 199.775 402.546L198.62 403.386C197.8 402.166 196.935 401.266 196.025 400.686C195.115 400.106 194.105 399.816 192.995 399.816H191.915V398.361H192.995C193.835 398.361 194.61 398.486 195.32 398.736L198.365 394.836L199.49 395.691L196.64 399.336ZM200.945 400.881V399.381H203.945V391.236H205.31V400.881H200.945ZM195.485 382.667C196.605 383.637 197.58 385.227 198.41 387.437L197.105 388.037C196.435 386.307 195.715 385.037 194.945 384.227C194.175 383.417 193.35 383.012 192.47 383.012H191.615V381.512H192.47C193.1 381.512 193.695 381.637 194.255 381.887L197.15 376.637L198.41 377.357L195.485 382.667ZM199.97 388.877V375.797H201.32V381.587H205.46V383.072H201.32V388.877H199.97ZM196.76 363.374V361.349H198.125V363.374H205.31V364.874H191.39V363.374H196.76ZM192.98 369.824V366.554H194.225V374.624H192.98V371.339H191.405V369.824H192.98ZM202.145 369.749C202.075 368.529 201.965 367.289 201.815 366.029L203.12 365.864C203.26 366.884 203.37 368.009 203.45 369.239C203.53 370.459 203.57 371.574 203.57 372.584V374.789L202.235 374.864V372.464C202.235 372.254 202.225 371.849 202.205 371.249H200.54C200.44 372.069 200.165 372.734 199.715 373.244C199.255 373.744 198.66 373.994 197.93 373.994H197.705C196.875 373.994 196.23 373.674 195.77 373.034C195.3 372.384 195.065 371.559 195.065 370.559C195.065 369.579 195.3 368.769 195.77 368.129C196.23 367.489 196.875 367.169 197.705 367.169H197.93C198.64 367.169 199.22 367.409 199.67 367.889C200.11 368.359 200.395 368.979 200.525 369.749H202.145ZM197.915 372.524C198.365 372.524 198.725 372.344 198.995 371.984C199.255 371.614 199.385 371.139 199.385 370.559C199.385 369.999 199.255 369.539 198.995 369.179C198.725 368.809 198.365 368.624 197.915 368.624H197.72C197.27 368.624 196.915 368.809 196.655 369.179C196.395 369.539 196.265 369.999 196.265 370.559C196.265 371.139 196.395 371.614 196.655 371.984C196.915 372.344 197.27 372.524 197.72 372.524H197.915Z" fill="#737373"/>
<rect width="85" height="10" transform="matrix(0 -1 -1 0 202 358)" fill="#8FBFC9"/>
<path d="M165.625 406.18V404.035H166.99V406.18H174.31V407.68H160.39V406.18H165.625ZM163.015 412.675C164.185 412.675 165.305 412.81 166.375 413.08L171.325 409.12L172.27 410.245L168.025 413.635C169.555 414.275 171.02 415.265 172.42 416.605L171.43 417.67C170.16 416.45 168.855 415.56 167.515 415C166.165 414.43 164.665 414.145 163.015 414.145H161.2V412.675H163.015ZM166.555 390.021H167.92V395.811H171.19V397.296H167.92V403.101H166.555V393.861C165.745 393.721 164.94 393.611 164.14 393.531C163.34 393.441 162.7 393.396 162.22 393.396H162.19V401.496H160.825V391.911H161.815C163.205 391.911 164.785 392.056 166.555 392.346V390.021ZM169.69 401.436V399.936H172.96V391.401H174.325V401.436H169.69ZM165.625 377.732V375.587H166.99V377.732H174.31V379.232H160.39V377.732H165.625ZM163.45 384.182C164.51 384.182 165.51 384.307 166.45 384.557L171.295 380.612L172.27 381.737L168.085 385.127C169.525 385.737 170.97 386.722 172.42 388.082L171.43 389.147C170.15 387.957 168.885 387.077 167.635 386.507C166.385 385.927 164.99 385.637 163.45 385.637H162.85V388.607H161.485V381.167H162.85V384.182H163.45ZM165.76 363.374V361.349H167.125V363.374H174.31V364.874H160.39V363.374H165.76ZM161.98 369.824V366.554H163.225V374.624H161.98V371.339H160.405V369.824H161.98ZM171.145 369.749C171.075 368.529 170.965 367.289 170.815 366.029L172.12 365.864C172.26 366.884 172.37 368.009 172.45 369.239C172.53 370.459 172.57 371.574 172.57 372.584V374.789L171.235 374.864V372.464C171.235 372.254 171.225 371.849 171.205 371.249H169.54C169.44 372.069 169.165 372.734 168.715 373.244C168.255 373.744 167.66 373.994 166.93 373.994H166.705C165.875 373.994 165.23 373.674 164.77 373.034C164.3 372.384 164.065 371.559 164.065 370.559C164.065 369.579 164.3 368.769 164.77 368.129C165.23 367.489 165.875 367.169 166.705 367.169H166.93C167.64 367.169 168.22 367.409 168.67 367.889C169.11 368.359 169.395 368.979 169.525 369.749H171.145ZM166.915 372.524C167.365 372.524 167.725 372.344 167.995 371.984C168.255 371.614 168.385 371.139 168.385 370.559C168.385 369.999 168.255 369.539 167.995 369.179C167.725 368.809 167.365 368.624 166.915 368.624H166.72C166.27 368.624 165.915 368.809 165.655 369.179C165.395 369.539 165.265 369.999 165.265 370.559C165.265 371.139 165.395 371.614 165.655 371.984C165.915 372.344 166.27 372.524 166.72 372.524H166.915Z" fill="#737373"/>
<rect width="95" height="10" transform="matrix(0 -1 -1 0 170 358)" fill="#8FBFC9"/>
<path d="M133.76 391.821V389.796H135.125V391.821H142.31V393.321H128.39V391.821H133.76ZM129.98 398.271V395.001H131.225V403.071H129.98V399.786H128.405V398.271H129.98ZM139.145 398.196C139.075 396.976 138.965 395.736 138.815 394.476L140.12 394.311C140.26 395.331 140.37 396.456 140.45 397.686C140.53 398.906 140.57 400.021 140.57 401.031V403.236L139.235 403.311V400.911C139.235 400.701 139.225 400.296 139.205 399.696H137.54C137.44 400.516 137.165 401.181 136.715 401.691C136.255 402.191 135.66 402.441 134.93 402.441H134.705C133.875 402.441 133.23 402.121 132.77 401.481C132.3 400.831 132.065 400.006 132.065 399.006C132.065 398.026 132.3 397.216 132.77 396.576C133.23 395.936 133.875 395.616 134.705 395.616H134.93C135.64 395.616 136.22 395.856 136.67 396.336C137.11 396.806 137.395 397.426 137.525 398.196H139.145ZM134.915 400.971C135.365 400.971 135.725 400.791 135.995 400.431C136.255 400.061 136.385 399.586 136.385 399.006C136.385 398.446 136.255 397.986 135.995 397.626C135.725 397.256 135.365 397.071 134.915 397.071H134.72C134.27 397.071 133.915 397.256 133.655 397.626C133.395 397.986 133.265 398.446 133.265 399.006C133.265 399.586 133.395 400.061 133.655 400.431C133.915 400.791 134.27 400.971 134.72 400.971H134.915ZM135.845 388.067C135.075 386.337 134.28 385.062 133.46 384.242C132.63 383.412 131.76 382.997 130.85 382.997H130.685V387.272H129.32V377.387H130.685V381.512H130.85C131.48 381.512 132.07 381.627 132.62 381.857L135.89 376.607L137.15 377.387L133.865 382.592C135.085 383.532 136.18 385.137 137.15 387.407L135.845 388.067ZM136.775 381.587H139.895V375.797H141.275V388.877H139.895V383.072H136.775V381.587ZM133.76 363.374V361.349H135.125V363.374H142.31V364.874H128.39V363.374H133.76ZM129.98 369.824V366.554H131.225V374.624H129.98V371.339H128.405V369.824H129.98ZM139.145 369.749C139.075 368.529 138.965 367.289 138.815 366.029L140.12 365.864C140.26 366.884 140.37 368.009 140.45 369.239C140.53 370.459 140.57 371.574 140.57 372.584V374.789L139.235 374.864V372.464C139.235 372.254 139.225 371.849 139.205 371.249H137.54C137.44 372.069 137.165 372.734 136.715 373.244C136.255 373.744 135.66 373.994 134.93 373.994H134.705C133.875 373.994 133.23 373.674 132.77 373.034C132.3 372.384 132.065 371.559 132.065 370.559C132.065 369.579 132.3 368.769 132.77 368.129C133.23 367.489 133.875 367.169 134.705 367.169H134.93C135.64 367.169 136.22 367.409 136.67 367.889C137.11 368.359 137.395 368.979 137.525 369.749H139.145ZM134.915 372.524C135.365 372.524 135.725 372.344 135.995 371.984C136.255 371.614 136.385 371.139 136.385 370.559C136.385 369.999 136.255 369.539 135.995 369.179C135.725 368.809 135.365 368.624 134.915 368.624H134.72C134.27 368.624 133.915 368.809 133.655 369.179C133.395 369.539 133.265 369.999 133.265 370.559C133.265 371.139 133.395 371.614 133.655 371.984C133.915 372.344 134.27 372.524 134.72 372.524H134.915Z" fill="#737373"/>
<rect width="105" height="12" transform="matrix(0 -1 -1 0 140 358)" fill="#8FBFC9"/>
<path d="M100.695 393.621V391.551H101.955V401.571H100.695V399.486H97.935V401.571H96.69V391.551H97.935V393.621H100.695ZM97.935 395.076V398.031H100.695V395.076H97.935ZM104.37 390.021V395.811H105.69V394.941C105.69 393.851 105.91 393.001 106.35 392.391C106.78 391.781 107.355 391.476 108.075 391.476C108.795 391.476 109.37 391.781 109.8 392.391C110.24 392.991 110.46 393.841 110.46 394.941V398.166C110.46 399.266 110.24 400.121 109.8 400.731C109.37 401.341 108.795 401.646 108.075 401.646C107.355 401.646 106.78 401.341 106.35 400.731C105.91 400.121 105.69 399.266 105.69 398.166V397.296H104.37V403.101H103.065V390.021H104.37ZM108.075 392.961C107.715 392.961 107.44 393.151 107.25 393.531C107.05 393.901 106.95 394.471 106.95 395.241V397.866C106.95 398.636 107.05 399.211 107.25 399.591C107.44 399.961 107.715 400.146 108.075 400.146C108.425 400.146 108.695 399.956 108.885 399.576C109.085 399.196 109.185 398.626 109.185 397.866V395.241C109.185 394.481 109.085 393.911 108.885 393.531C108.695 393.151 108.425 392.961 108.075 392.961ZM99.78 382.742C100.63 383.682 101.33 385.217 101.88 387.347L100.59 387.797C100.15 386.167 99.64 384.957 99.06 384.167C98.48 383.377 97.845 382.982 97.155 382.982H96.54V381.527H97.155C97.695 381.527 98.185 381.637 98.625 381.857L100.635 376.877L101.88 377.432L99.78 382.742ZM101.415 381.587H103.035V375.797H104.325V388.877H103.035V383.072H101.415V381.587ZM107.175 378.887V387.272H105.825V377.387H110.46V378.887H107.175ZM101.76 363.374V361.349H103.125V363.374H110.31V364.874H96.39V363.374H101.76ZM97.98 369.824V366.554H99.225V374.624H97.98V371.339H96.405V369.824H97.98ZM107.145 369.749C107.075 368.529 106.965 367.289 106.815 366.029L108.12 365.864C108.26 366.884 108.37 368.009 108.45 369.239C108.53 370.459 108.57 371.574 108.57 372.584V374.789L107.235 374.864V372.464C107.235 372.254 107.225 371.849 107.205 371.249H105.54C105.44 372.069 105.165 372.734 104.715 373.244C104.255 373.744 103.66 373.994 102.93 373.994H102.705C101.875 373.994 101.23 373.674 100.77 373.034C100.3 372.384 100.065 371.559 100.065 370.559C100.065 369.579 100.3 368.769 100.77 368.129C101.23 367.489 101.875 367.169 102.705 367.169H102.93C103.64 367.169 104.22 367.409 104.67 367.889C105.11 368.359 105.395 368.979 105.525 369.749H107.145ZM102.915 372.524C103.365 372.524 103.725 372.344 103.995 371.984C104.255 371.614 104.385 371.139 104.385 370.559C104.385 369.999 104.255 369.539 103.995 369.179C103.725 368.809 103.365 368.624 102.915 368.624H102.72C102.27 368.624 101.915 368.809 101.655 369.179C101.395 369.539 101.265 369.999 101.265 370.559C101.265 371.139 101.395 371.614 101.655 371.984C101.915 372.344 102.27 372.524 102.72 372.524H102.915Z" fill="#737373"/>
<rect width="118" height="12" transform="matrix(0 -1 -1 0 108 358)" fill="#8FBFC9"/>
<path d="M73.64 424.258H76.895V418.468H78.275V431.548H76.895V425.743H73.64V429.943H66.32V420.208H67.685V428.443H72.29V420.058H73.64V424.258ZM68.09 406.9H65.39V405.4H73.205V406.9H69.425V409.915H68.09V406.9ZM70.205 413.155C71.255 413.845 72.22 414.925 73.1 416.395L71.915 417.19C71.175 415.97 70.39 415.07 69.56 414.49C68.72 413.91 67.795 413.62 66.785 413.62H65.84V412.165H66.785C67.555 412.165 68.27 412.285 68.93 412.525L71.72 408.64L72.875 409.45L70.205 413.155ZM75.44 406.9V414.76H74.075V405.4H79.46V406.9H75.44ZM75.815 391.161V392.661H65.39V391.161H75.815ZM73.535 398.826C73.535 399.536 73.395 400.176 73.115 400.746C72.835 401.306 72.415 401.751 71.855 402.081C71.295 402.401 70.61 402.561 69.8 402.561H69.515C68.695 402.561 68.005 402.401 67.445 402.081C66.875 401.751 66.455 401.306 66.185 400.746C65.905 400.176 65.765 399.536 65.765 398.826C65.765 398.126 65.905 397.496 66.185 396.936C66.455 396.366 66.875 395.921 67.445 395.601C68.005 395.271 68.695 395.106 69.515 395.106H69.8C70.61 395.106 71.295 395.271 71.855 395.601C72.415 395.921 72.835 396.366 73.115 396.936C73.395 397.496 73.535 398.126 73.535 398.826ZM72.215 398.826C72.215 398.176 72.005 397.646 71.585 397.236C71.165 396.816 70.56 396.606 69.77 396.606H69.53C68.74 396.606 68.135 396.816 67.715 397.236C67.295 397.646 67.085 398.176 67.085 398.826C67.085 399.486 67.295 400.026 67.715 400.446C68.135 400.856 68.74 401.061 69.53 401.061H69.77C70.56 401.061 71.165 400.856 71.585 400.446C72.005 400.026 72.215 399.486 72.215 398.826ZM79.31 390.576V400.371H74.795V398.871H77.945V390.576H79.31ZM65.615 387.137V377.537H69.905V387.137H65.615ZM68.705 385.637V379.037H66.815V385.637H68.705ZM70.94 375.797H72.17V381.587H73.385V377.387H76.94V385.772H78.17V377.027H79.385V387.272H75.755V378.887H74.585V387.347H73.385V383.072H72.17V388.877H70.94V375.797ZM70.76 363.374V361.349H72.125V363.374H79.31V364.874H65.39V363.374H70.76ZM66.98 369.824V366.554H68.225V374.624H66.98V371.339H65.405V369.824H66.98ZM76.145 369.749C76.075 368.529 75.965 367.289 75.815 366.029L77.12 365.864C77.26 366.884 77.37 368.009 77.45 369.239C77.53 370.459 77.57 371.574 77.57 372.584V374.789L76.235 374.864V372.464C76.235 372.254 76.225 371.849 76.205 371.249H74.54C74.44 372.069 74.165 372.734 73.715 373.244C73.255 373.744 72.66 373.994 71.93 373.994H71.705C70.875 373.994 70.23 373.674 69.77 373.034C69.3 372.384 69.065 371.559 69.065 370.559C69.065 369.579 69.3 368.769 69.77 368.129C70.23 367.489 70.875 367.169 71.705 367.169H71.93C72.64 367.169 73.22 367.409 73.67 367.889C74.11 368.359 74.395 368.979 74.525 369.749H76.145ZM71.915 372.524C72.365 372.524 72.725 372.344 72.995 371.984C73.255 371.614 73.385 371.139 73.385 370.559C73.385 369.999 73.255 369.539 72.995 369.179C72.725 368.809 72.365 368.624 71.915 368.624H71.72C71.27 368.624 70.915 368.809 70.655 369.179C70.395 369.539 70.265 369.999 70.265 370.559C70.265 371.139 70.395 371.614 70.655 371.984C70.915 372.344 71.27 372.524 71.72 372.524H71.915Z" fill="#737373"/>
<rect width="122" height="11" transform="matrix(0 -1 -1 0 76 358)" fill="#8FBFC9"/>
<path d="M33.39 420.403H36.885V418.243H38.235V420.403H43.815V421.903H33.39V420.403ZM38.64 427.783C39.77 428.483 40.815 429.553 41.775 430.993L40.62 431.833C39.8 430.613 38.935 429.713 38.025 429.133C37.115 428.553 36.105 428.263 34.995 428.263H33.915V426.808H34.995C35.835 426.808 36.61 426.933 37.32 427.183L40.365 423.283L41.49 424.138L38.64 427.783ZM42.945 429.328V427.828H45.945V419.683H47.31V429.328H42.945ZM37.485 411.115C38.605 412.085 39.58 413.675 40.41 415.885L39.105 416.485C38.435 414.755 37.715 413.485 36.945 412.675C36.175 411.865 35.35 411.46 34.47 411.46H33.615V409.96H34.47C35.1 409.96 35.695 410.085 36.255 410.335L39.15 405.085L40.41 405.805L37.485 411.115ZM41.97 417.325V404.245H43.32V410.035H47.46V411.52H43.32V417.325H41.97ZM43.815 391.161V392.661H33.39V391.161H43.815ZM41.535 398.826C41.535 399.536 41.395 400.176 41.115 400.746C40.835 401.306 40.415 401.751 39.855 402.081C39.295 402.401 38.61 402.561 37.8 402.561H37.515C36.695 402.561 36.005 402.401 35.445 402.081C34.875 401.751 34.455 401.306 34.185 400.746C33.905 400.176 33.765 399.536 33.765 398.826C33.765 398.126 33.905 397.496 34.185 396.936C34.455 396.366 34.875 395.921 35.445 395.601C36.005 395.271 36.695 395.106 37.515 395.106H37.8C38.61 395.106 39.295 395.271 39.855 395.601C40.415 395.921 40.835 396.366 41.115 396.936C41.395 397.496 41.535 398.126 41.535 398.826ZM40.215 398.826C40.215 398.176 40.005 397.646 39.585 397.236C39.165 396.816 38.56 396.606 37.77 396.606H37.53C36.74 396.606 36.135 396.816 35.715 397.236C35.295 397.646 35.085 398.176 35.085 398.826C35.085 399.486 35.295 400.026 35.715 400.446C36.135 400.856 36.74 401.061 37.53 401.061H37.77C38.56 401.061 39.165 400.856 39.585 400.446C40.005 400.026 40.215 399.486 40.215 398.826ZM47.31 390.576V400.371H42.795V398.871H45.945V390.576H47.31ZM33.615 387.137V377.537H37.905V387.137H33.615ZM36.705 385.637V379.037H34.815V385.637H36.705ZM38.94 375.797H40.17V381.587H41.385V377.387H44.94V385.772H46.17V377.027H47.385V387.272H43.755V378.887H42.585V387.347H41.385V383.072H40.17V388.877H38.94V375.797ZM38.76 363.374V361.349H40.125V363.374H47.31V364.874H33.39V363.374H38.76ZM34.98 369.824V366.554H36.225V374.624H34.98V371.339H33.405V369.824H34.98ZM44.145 369.749C44.075 368.529 43.965 367.289 43.815 366.029L45.12 365.864C45.26 366.884 45.37 368.009 45.45 369.239C45.53 370.459 45.57 371.574 45.57 372.584V374.789L44.235 374.864V372.464C44.235 372.254 44.225 371.849 44.205 371.249H42.54C42.44 372.069 42.165 372.734 41.715 373.244C41.255 373.744 40.66 373.994 39.93 373.994H39.705C38.875 373.994 38.23 373.674 37.77 373.034C37.3 372.384 37.065 371.559 37.065 370.559C37.065 369.579 37.3 368.769 37.77 368.129C38.23 367.489 38.875 367.169 39.705 367.169H39.93C40.64 367.169 41.22 367.409 41.67 367.889C42.11 368.359 42.395 368.979 42.525 369.749H44.145ZM39.915 372.524C40.365 372.524 40.725 372.344 40.995 371.984C41.255 371.614 41.385 371.139 41.385 370.559C41.385 369.999 41.255 369.539 40.995 369.179C40.725 368.809 40.365 368.624 39.915 368.624H39.72C39.27 368.624 38.915 368.809 38.655 369.179C38.395 369.539 38.265 369.999 38.265 370.559C38.265 371.139 38.395 371.614 38.655 371.984C38.915 372.344 39.27 372.524 39.72 372.524H39.915Z" fill="#737373"/>
<rect width="208" height="12" transform="matrix(0 -1 -1 0 45 358)" fill="#8FBFC9"/>
<path d="M1.39 391.956H4.885V389.796H6.235V391.956H11.815V393.456H1.39V391.956ZM6.64 399.336C7.77 400.036 8.815 401.106 9.775 402.546L8.62 403.386C7.8 402.166 6.935 401.266 6.025 400.686C5.115 400.106 4.105 399.816 2.995 399.816H1.915V398.361H2.995C3.835 398.361 4.61 398.486 5.32 398.736L8.365 394.836L9.49 395.691L6.64 399.336ZM10.945 400.881V399.381H13.945V391.236H15.31V400.881H10.945ZM5.485 382.667C6.605 383.637 7.58 385.227 8.41 387.437L7.105 388.037C6.435 386.307 5.715 385.037 4.945 384.227C4.175 383.417 3.35 383.012 2.47 383.012H1.615V381.512H2.47C3.1 381.512 3.695 381.637 4.255 381.887L7.15 376.637L8.41 377.357L5.485 382.667ZM9.97 388.877V375.797H11.32V381.587H15.46V383.072H11.32V388.877H9.97ZM6.76 363.374V361.349H8.125V363.374H15.31V364.874H1.39V363.374H6.76ZM2.98 369.824V366.554H4.225V374.624H2.98V371.339H1.405V369.824H2.98ZM12.145 369.749C12.075 368.529 11.965 367.289 11.815 366.029L13.12 365.864C13.26 366.884 13.37 368.009 13.45 369.239C13.53 370.459 13.57 371.574 13.57 372.584V374.789L12.235 374.864V372.464C12.235 372.254 12.225 371.849 12.205 371.249H10.54C10.44 372.069 10.165 372.734 9.715 373.244C9.255 373.744 8.66 373.994 7.93 373.994H7.705C6.875 373.994 6.23 373.674 5.77 373.034C5.3 372.384 5.065 371.559 5.065 370.559C5.065 369.579 5.3 368.769 5.77 368.129C6.23 367.489 6.875 367.169 7.705 367.169H7.93C8.64 367.169 9.22 367.409 9.67 367.889C10.11 368.359 10.395 368.979 10.525 369.749H12.145ZM7.915 372.524C8.365 372.524 8.725 372.344 8.995 371.984C9.255 371.614 9.385 371.139 9.385 370.559C9.385 369.999 9.255 369.539 8.995 369.179C8.725 368.809 8.365 368.624 7.915 368.624H7.72C7.27 368.624 6.915 368.809 6.655 369.179C6.395 369.539 6.265 369.999 6.265 370.559C6.265 371.139 6.395 371.614 6.655 371.984C6.915 372.344 7.27 372.524 7.72 372.524H7.915Z" fill="#737373"/>
<rect width="358" height="12" transform="matrix(0 -1 -1 0 13 358)" fill="#8FBFC9"/>
</svg>
